<svg xmlns="http://www.w3.org/2000/svg" color-interpolation-filters="sRGB" version="1.0" viewBox="0 0 239.6 75.87">
  <g fill="#333">
    <g>
      <path fill="none" d="M0 0h60v75.875H0z"/>
      <svg width="60" height="75.875">
        <svg xmlns="http://www.w3.org/2000/svg" viewBox="0 0 79.08 100.004">
          <g fill-rule="evenodd">
            <path fill="#f97316" d="M5 29.85 56 9.69C61.37 7.34 68.32 3.79 71.45 0c0 0 20.94 20-6.56 30.85L20.64 48.36z"/>
            <path fill="#f97316" d="m0 64.55 51-20.16c5.38-2.34 12.33-5.89 15.46-9.68 0 0 20.94 20-6.56 30.84L15.59 83.07z"/>
            <path fill="#f97316" d="m0 64.55 27-10.68 33.17 39.36-13.5 5.35c-7.43 2.94-17 1.18-21.31-3.92z" opacity=".8"/>
          </g>
        </svg>
      </svg>
    </g>
    <path d="M71.02 15.528q.9 0 1.89.48.99.47 1.5 1.24l15.54 23.92-3.2-.13 15.93-23.79q1.21-1.72 3.13-1.72 1.53 0 2.75 1.08 1.21 1.09 1.21 2.82v37.02q0 1.66-1.08 2.78-1.09 1.12-2.88 1.12-1.79 0-2.91-1.12t-1.12-2.78v-30.12l2.49.58-13.04 19.88q-.58.71-1.44 1.22t-1.76.45q-.83.06-1.69-.45t-1.44-1.22l-12.21-19.31 1.66-3.39v32.36q0 1.66-1.02 2.78-1.03 1.12-2.69 1.12-1.6 0-2.62-1.12T67 56.448v-37.02q0-1.6 1.18-2.75t2.84-1.15Zm63.5 44.82q-1.79 0-2.94-1.12t-1.15-2.78v-37.09h8.31v37.09q0 1.66-1.18 2.78-1.19 1.12-3.04 1.12Zm14.26-37.41h-28.39q-1.66 0-2.78-1.02-1.12-1.02-1.12-2.69 0-1.66 1.12-2.65t2.78-.99h28.39q1.66 0 2.78 1.02 1.12 1.03 1.12 2.69t-1.12 2.65q-1.12.99-2.78.99Zm14.51-7.35h15.29q4.6 0 8.18 1.73 3.58 1.72 6.04 4.82 2.47 3.11 3.71 7.17 1.25 4.06 1.25 8.66 0 6.2-2.24 11.29-2.24 5.08-6.49 8.08-4.25 3.01-10.45 3.01h-15.29q-1.66 0-2.78-1.12-1.12-1.12-1.12-2.78v-36.96q0-1.66 1.12-2.78 1.12-1.12 2.78-1.12Zm3.71 37.41h10.94q4.03 0 6.58-2.08 2.56-2.08 3.74-5.5 1.19-3.42 1.19-7.45 0-3.01-.67-5.72-.68-2.72-2.08-4.8-1.41-2.08-3.58-3.29-2.18-1.22-5.18-1.22h-11.19l.64-.57v31.33l-.39-.7Zm42.01-37.41h16.12q6.14 0 9.14 2.88 3.01 2.87 3.01 8.5 0 3.01-1.47 5.28-1.48 2.27-4.35 3.51-2.88 1.25-7.1 1.25l.26-2.88q1.98 0 4.54.55 2.55.54 4.95 1.92 2.4 1.37 3.97 3.83 1.56 2.46 1.56 6.3 0 4.22-1.37 6.91-1.38 2.68-3.62 4.15-2.23 1.47-4.79 2.02-2.56.54-4.92.54h-15.93q-1.66 0-2.78-1.12-1.12-1.12-1.12-2.78v-36.96q0-1.66 1.12-2.78 1.12-1.12 2.78-1.12Zm14.97 7.55h-11.39l.84-1.03v11.58l-.77-.58h11.51q1.85 0 3.32-1.21 1.47-1.22 1.47-3.52 0-2.75-1.37-4-1.38-1.24-3.61-1.24Zm.51 17.52h-11.64l.58-.52v13.5l-.64-.64h12.15q2.94 0 4.66-1.57 1.73-1.57 1.73-4.7 0-2.88-1.15-4.16-1.15-1.28-2.75-1.59-1.6-.32-2.94-.32Z"/>
  </g>
</svg>
